Coordinates
version=1
nRows=34
nColumns=33
inDegrees=yes

Units are S.I. units (second, meters, Newtons, ...)
Angles are in degrees.

endheader
time	ground_thorax_rot_x	ground_thorax_rot_y	ground_thorax_rot_z	ground_thorax_tx	ground_thorax_ty	ground_thorax_tz	clav_prot_r	clav_elev_r	scapula_abduction_r	scapula_elevation_r	scapula_upward_rot_r	scapula_winging_r	shoulder_elv_r	plane_of_elev_r	axial_rot_r	elbow_flexion_r	pro_sup_r	wrist_flex_r	wrist_dev_r	clav_prot_l	clav_elev_l	scapula_abduction_l	scapula_elevation_l	scapula_upward_rot_l	scapula_winging_l	shoulder_elv_l	plane_of_elev_l	axial_rot_l	elbow_flexion_l	pro_sup_l	wrist_flex_l	wrist_dev_l	
4.9600	37.291192	3.606890	15.306194	-192.795303	833.124187	-10.845529	13.527680	36.672233	33.291385	45.000000	-44.999999	2077.414902	-1734.473717	30.533825	71.619003	-346.781260	35.834592	17.927063	7.192079	11.284156	-45.000000	-33.813965	45.000000	-45.000000	-261.756226	-2977.652719	146.540669	134.366472	369.246752	32.712359	9.459272	-21.279020	
4.9700	37.335708	3.603076	15.104308	-193.600708	834.494615	-10.878651	13.492191	36.626396	33.313877	45.000000	-44.999998	2077.366121	-1734.454828	30.595914	71.363770	-346.731800	35.659500	17.938587	7.165544	11.270299	-45.000000	-33.857818	45.000000	-45.000000	-261.596265	-2977.595384	146.513937	134.099905	369.359607	32.847060	9.352992	-21.395026	
4.9800	37.390557	3.590534	14.884591	-194.342861	835.832846	-10.896114	13.440697	36.584595	33.348392	45.000000	-44.999996	2077.297650	-1734.449532	30.673182	71.080338	-346.689253	35.478054	17.955181	7.136258	11.233241	-45.000000	-33.920516	45.000000	-45.000000	-261.409662	-2977.553024	146.436861	133.826721	369.467550	32.983745	9.231097	-21.556224	
4.9900	37.447225	3.589725	14.692634	-194.944932	837.105055	-10.881055	13.424018	36.556787	33.391616	45.000000	-44.999992	2077.244848	-1734.422994	30.740051	70.832842	-346.653849	35.290499	17.967410	7.119926	11.238898	-45.000000	-33.972877	45.000000	-45.000000	-261.287970	-2977.501669	146.421116	133.611266	369.580439	33.134973	9.130332	-21.642237	
5.0000	37.510558	3.593281	14.510064	-195.403782	838.302840	-10.832400	13.421802	36.538255	33.446153	45.000000	-44.999986	2077.191450	-1734.390075	30.807895	70.591081	-346.626887	35.094141	17.976577	7.108558	11.262221	-45.000000	-34.027344	45.000000	-45.000000	-261.197763	-2977.449838	146.418376	133.428078	369.697009	33.297972	9.035658	-21.694118	
5.0100	37.577411	3.613453	14.350112	-195.708521	839.414863	-10.747921	13.432620	36.528914	33.504827	45.000000	-44.999975	2077.145307	-1734.340980	30.866505	70.363058	-346.605082	34.889704	17.991510	7.108740	11.295072	-45.000000	-34.082252	45.000000	-45.000000	-261.134974	-2977.393738	146.430696	133.280031	369.815628	33.472229	8.939897	-21.721169	
5.0200	37.648934	3.640671	14.201391	-195.869645	840.438141	-10.630832	13.445286	36.523899	33.566519	45.000000	-44.999955	2077.097399	-1734.286754	30.927956	70.138340	-346.591310	34.679053	18.001521	7.106943	11.335047	-45.000000	-34.142089	45.000000	-45.000000	-261.087597	-2977.337259	146.438768	133.154631	369.935188	33.657018	8.842489	-21.726576	
5.0300	37.720806	3.684854	14.075161	-195.907589	841.375940	-10.487098	13.457149	36.521482	33.623860	45.000000	-44.999919	2077.056027	-1734.217148	30.980184	69.930147	-346.577386	34.470030	18.020910	7.112043	11.367421	-45.000000	-34.206725	45.000000	-45.000000	-261.045743	-2977.276376	146.442268	133.050722	370.053141	33.848802	8.732764	-21.732761	
5.0400	37.793190	3.731009	13.959828	-195.840913	842.232923	-10.323535	13.464482	36.518975	33.681025	45.000000	-44.999854	2077.009781	-1734.146912	31.039535	69.739211	-346.567436	34.270842	18.027233	7.101224	11.404188	-45.000000	-34.275484	45.000000	-45.000000	-261.009096	-2977.214180	146.433631	132.966205	370.167580	34.049096	8.621530	-21.720771	
5.0500	37.863870	3.782014	13.867069	-195.685658	843.015943	-10.146711	13.478729	36.521321	33.748030	45.000000	-44.999740	2076.968512	-1734.069473	31.084099	69.592511	-346.553119	34.097041	18.044342	7.097637	11.433177	-45.000000	-34.339304	45.000000	-45.000000	-260.983463	-2977.146382	146.429568	132.911766	370.274253	34.256925	8.500578	-21.707386	
5.0600	37.936317	3.824957	13.773097	-195.453483	843.731694	-9.962929	13.492544	36.523585	33.815570	45.000000	-44.999533	2076.913858	-1734.003638	31.146319	69.469503	-346.545698	33.958171	18.036666	7.062640	11.461863	-45.000000	-34.407563	45.000000	-45.000000	-260.959251	-2977.082453	146.402904	132.874769	370.372515	34.477695	8.385423	-21.680398	
5.0700	38.008679	3.875437	13.697023	-195.152799	844.387678	-9.777473	13.512161	36.528522	33.885210	45.000000	-44.999166	2076.867092	-1733.933564	31.192025	69.388976	-346.541802	33.873124	18.042804	7.041746	11.484559	-45.000000	-34.465922	45.000000	-45.000000	-260.949967	-2977.014982	146.381634	132.862706	370.457822	34.714538	8.264314	-21.656487	
5.0800	38.080498	3.927532	13.621563	-194.789429	844.990741	-9.594715	13.522114	36.531997	33.939209	45.000000	-44.998497	2076.817804	-1733.870333	31.250507	69.316506	-346.547328	33.847570	18.024882	6.989975	11.511577	-45.000000	-34.536789	45.000000	-45.000000	-260.935397	-2976.955139	146.340191	132.859499	370.535096	34.974892	8.151658	-21.622523	
5.0900	38.152730	3.986278	13.562827	-194.369735	845.549270	-9.417294	13.531547	36.539039	34.000623	45.000000	-44.997332	2076.783444	-1733.802857	31.280767	69.276829	-346.551115	33.898710	18.035920	6.970222	11.537859	-45.000000	-34.594659	45.000000	-45.000000	-260.938319	-2976.891688	146.313813	132.876648	370.605278	35.261397	8.031488	-21.598635	
5.1000	38.224319	4.045450	13.500914	-193.901274	846.072276	-9.246592	13.534940	36.544879	34.045394	45.000000	-44.995155	2076.746296	-1733.740559	31.324408	69.229141	-346.555461	34.023855	18.022838	6.914517	11.565200	-45.000000	-34.670039	45.000000	-45.000000	-260.930409	-2976.836794	146.267104	132.896467	370.677650	35.579630	7.921660	-21.570341	
5.1100	38.297401	4.102950	13.449250	-193.393232	846.570063	-9.082693	13.539603	36.553829	34.109481	45.000000	-44.991503	2076.715327	-1733.677487	31.342509	69.205792	-346.547222	34.235553	18.043762	6.894552	11.591414	-45.000000	-34.726161	45.000000	-45.000000	-260.942198	-2976.772892	146.236137	132.933477	370.751768	35.929598	7.803968	-21.557069	
5.1200	38.368811	4.148222	13.390116	-192.855204	847.052622	-8.925285	13.550071	36.564703	34.173599	45.000000	-44.984272	2076.675284	-1733.623035	31.372880	69.171637	-346.526661	34.522286	18.040536	6.832209	11.611700	-45.000000	-34.800579	45.000000	-45.000000	-260.939195	-2976.714078	146.186147	132.972271	370.834917	36.312498	7.696005	-21.541747	
5.1300	38.441443	4.176566	13.334760	-192.296437	847.529845	-8.773847	13.567930	36.579481	34.271459	45.000000	-44.973243	2076.631207	-1733.572773	31.386962	69.165851	-346.487090	34.889549	18.071122	6.805082	11.627147	-45.000000	-34.851444	45.000000	-44.999999	-260.958067	-2976.642123	146.155960	133.027023	370.926600	36.724378	7.580454	-21.544141	
5.1400	38.513478	4.179650	13.263318	-191.724319	848.010563	-8.628362	13.604457	36.599984	34.377963	45.000000	-44.948119	2076.567865	-1733.539982	31.417888	69.150817	-346.437800	35.317386	18.063851	6.717530	11.629211	-45.000000	-34.920432	45.000000	-44.999999	-260.957329	-2976.578748	146.099519	133.080609	371.028518	37.164591	7.476040	-21.541728	
5.1500	38.590012	4.172778	13.192418	-191.143934	848.503186	-8.489377	13.642441	36.625607	34.504391	45.000000	-44.918098	2076.496809	-1733.513589	31.439339	69.168188	-346.390074	35.813129	18.074365	6.656532	11.623202	-45.000000	-34.963241	45.000000	-44.999998	-260.980039	-2976.507377	146.060675	133.148418	371.128602	37.633059	7.367070	-21.552219	
5.1600	38.661606	4.162696	13.116855	-190.558304	849.015832	-8.358204	13.689016	36.652958	34.619627	45.000000	-44.889465	2076.426526	-1733.488068	31.464809	69.174643	-346.336326	36.358996	18.062692	6.557068	11.612404	-45.000000	-35.023370	45.000000	-44.999996	-260.987351	-2976.440237	145.998734	133.217861	371.230668	38.127861	7.261329	-21.553990	
5.1700	38.727176	4.163368	13.054729	-189.969208	849.557110	-8.236711	13.720179	36.673331	34.723407	45.000000	-44.877273	2076.359726	-1733.449491	31.494433	69.184326	-346.272223	36.957207	18.075175	6.491946	11.607623	-45.000000	-35.071542	45.000000	-44.999992	-261.019247	-2976.357775	145.956234	133.300400	371.335533	38.644865	7.147174	-21.567783	
5.1800	38.783581	4.162229	12.993180	-189.377243	850.136574	-8.127167	13.758143	36.691996	34.818602	45.000000	-44.872112	2076.296085	-1733.407530	31.525604	69.166130	-346.193289	37.596806	18.073973	6.397374	11.603921	-45.000000	-35.131785	45.000000	-44.999987	-261.038187	-2976.272990	145.884678	133.392689	371.441278	39.181719	7.031641	-21.569590	
5.1900	38.834318	4.168185	12.940727	-188.782194	850.764548	-8.032101	13.779984	36.701905	34.904239	45.000000	-44.875151	2076.230775	-1733.355209	31.560479	69.138337	-346.105209	38.284827	18.087240	6.326480	11.605641	-45.000000	-35.186307	45.000000	-44.999976	-261.072541	-2976.174434	145.821236	133.507741	371.546041	39.735048	6.910373	-21.579430	
5.2000	38.875457	4.161329	12.883797	-188.183049	851.452049	-7.954063	13.802022	36.711860	34.984873	45.000000	-44.862841	2076.172875	-1733.292851	31.589152	69.087161	-345.997684	39.014837	18.098066	6.238176	11.615400	-45.000000	-35.256560	45.000000	-44.999957	-261.089217	-2976.070605	145.729524	133.647497	371.656499	40.297281	6.786103	-21.578770	
5.2100	38.909290	4.141485	12.824620	-187.578382	852.209919	-7.895467	13.807534	36.714862	35.064308	45.000000	-44.823375	2076.098915	-1733.228815	31.626694	69.026166	-345.872537	39.788062	18.111727	6.156126	11.630036	-45.000000	-35.340291	45.000000	-44.999923	-261.110846	-2975.957069	145.644494	133.820786	371.774782	40.860428	6.662384	-21.590470	
5.2200	38.940930	4.095542	12.751084	-186.965722	853.048849	-7.858298	13.817793	36.731063	35.164610	45.000000	-44.746759	2076.017870	-1733.171645	31.648331	68.968313	-345.742199	40.613702	18.112528	6.052191	11.637922	-45.000000	-35.425487	45.000000	-44.999862	-261.125609	-2975.843757	145.536047	134.032904	371.889698	41.424492	6.544489	-21.594658	
5.2300	38.970685	4.040149	12.670659	-186.341669	853.978501	-7.843917	13.819722	36.743949	35.270428	45.000000	-44.667905	2075.923434	-1733.112087	31.682510	68.904432	-345.621752	41.498122	18.104549	5.948617	11.639100	-45.000000	-35.506026	45.000000	-44.999752	-261.144792	-2975.724655	145.421809	134.281479	371.995473	41.986846	6.433054	-21.607341	
5.2400	38.994263	3.976286	12.585136	-185.701286	855.007294	-7.852856	13.815535	36.765110	35.372348	45.000000	-44.579650	2075.845421	-1733.029735	31.710190	68.821823	-345.502166	42.446366	18.100007	5.846726	11.637736	-45.000000	-35.582014	45.000000	-44.999556	-261.165394	-2975.596216	145.295011	134.563492	372.098015	42.544212	6.325594	-21.615811	
5.2500	39.010423	3.906345	12.493234	-185.037957	856.142073	-7.884497	13.799692	36.782689	35.475365	45.000000	-44.492624	2075.758348	-1732.937883	31.754195	68.706966	-345.377145	43.455765	18.092689	5.745320	11.636814	-45.000000	-35.663380	45.000000	-44.999205	-261.188170	-2975.454214	145.159593	134.879471	372.196945	43.090761	6.220854	-21.631835	
5.2600	39.021671	3.831879	12.399614	-184.342895	857.387994	-7.937095	13.781050	36.814488	35.597014	45.000000	-44.391983	2075.673449	-1732.837261	31.778824	68.573283	-345.245822	44.544937	18.086098	5.643253	11.631996	-45.000000	-35.743548	45.000000	-44.998574	-261.213160	-2975.301179	145.017420	135.235369	372.288955	43.632479	6.118885	-21.642531	
5.2700	39.027175	3.749037	12.296846	-183.605800	858.749183	-8.007190	13.758640	36.847178	35.736524	45.000000	-44.277414	2075.572255	-1732.734596	31.805619	68.409471	-345.100796	45.711533	18.077358	5.536227	11.633857	-45.000000	-35.838416	45.000000	-44.997449	-261.229228	-2975.133766	144.860284	135.635490	372.379857	44.165354	6.014927	-21.655291	
5.2800	39.028475	3.656231	12.185689	-182.815675	860.229499	-8.089346	13.734740	36.894448	35.890762	45.000000	-44.112523	2075.459077	-1732.627265	31.818458	68.232961	-344.934981	46.956961	18.068853	5.424029	11.642530	-45.000000	-35.952293	45.000000	-44.995423	-261.242612	-2974.953438	144.700548	136.089569	372.477115	44.689037	5.910856	-21.666744	
5.2900	39.028228	3.548721	12.055437	-181.962164	861.833716	-8.175588	13.722906	36.948187	36.064888	45.000000	-43.910156	2075.310585	-1732.531619	31.848285	68.060495	-344.756538	48.274896	18.049059	5.300397	11.661322	-45.000000	-36.086998	45.000000	-44.991821	-261.251611	-2974.761282	144.522432	136.606964	372.571920	45.202157	5.805888	-21.681434	
